<?xml version="1.0" encoding="UTF-8"?>
<!DOCTYPE svg PUBLIC "-//W3C//DTD SVG 1.1//EN" "http://www.w3.org/Graphics/SVG/1.1/DTD/svg11.dtd">
<svg xmlns="http://www.w3.org/2000/svg" version="1.1" width="500px" height="500px" style="shape-rendering:geometricPrecision; text-rendering:geometricPrecision; image-rendering:optimizeQuality; fill-rule:evenodd; clip-rule:evenodd" xmlns:xlink="http://www.w3.org/1999/xlink">
<g><path style="opacity:1" fill="#1b0b54" d="M -0.5,-0.5 C 166.167,-0.5 332.833,-0.5 499.5,-0.5C 499.5,166.167 499.5,332.833 499.5,499.5C 332.833,499.5 166.167,499.5 -0.5,499.5C -0.5,332.833 -0.5,166.167 -0.5,-0.5 Z"/></g>
<g><path style="opacity:1" fill="#10eaee" d="M 195.5,198.5 C 197.742,201.979 199.742,205.646 201.5,209.5C 202.695,211.751 203.695,214.085 204.5,216.5C 203.167,216.5 201.833,216.5 200.5,216.5C 200.737,215.209 200.404,214.209 199.5,213.5C 198.592,210.013 196.926,207.013 194.5,204.5C 180.261,183.22 160.261,174.053 134.5,177C 111.844,181.314 96.0106,194.148 87,215.5C 77.4801,252.958 90.3134,279.458 125.5,295C 149.415,300.928 170.081,295.428 187.5,278.5C 191.238,275.09 194.238,271.09 196.5,266.5C 197.833,266.5 199.167,266.5 200.5,266.5C 181.28,297.188 154.28,307.022 119.5,296C 87.6734,280.178 75.1734,254.678 82,219.5C 85.6699,209.018 91.1699,199.684 98.5,191.5C 118.89,172.602 142.224,168.102 168.5,178C 179.129,182.809 188.129,189.643 195.5,198.5 Z"/></g>
<g><path style="opacity:1" fill="#1e185c" d="M 194.5,204.5 C 193.048,205.713 191.714,205.38 190.5,203.5C 188.048,205.095 185.381,206.095 182.5,206.5C 180.038,203.536 177.371,200.703 174.5,198C 173.251,197.26 172.251,197.427 171.5,198.5C 170.167,198.5 168.833,198.5 167.5,198.5C 138.348,185.826 116.514,193.493 102,221.5C 95.8201,243.628 101.987,261.461 120.5,275C 125.475,277.936 130.808,279.769 136.5,280.5C 138.948,281.473 141.615,281.806 144.5,281.5C 147.583,281.916 150.583,282.583 153.5,283.5C 158.468,284.077 163.135,282.744 167.5,279.5C 167.043,278.702 166.376,278.369 165.5,278.5C 165.389,277.883 165.056,277.383 164.5,277C 150.058,278.844 140.558,273.011 136,259.5C 132.667,247.5 132.667,235.5 136,223.5C 137.922,216.472 142.089,211.306 148.5,208C 153.085,207.238 157.419,206.071 161.5,204.5C 162.858,205.626 164.192,205.626 165.5,204.5C 162.737,201.785 159.404,200.119 155.5,199.5C 156.5,198.833 157.5,198.167 158.5,197.5C 168.238,201.038 175.571,207.371 180.5,216.5C 180.158,217.338 179.492,217.672 178.5,217.5C 176.812,213.812 174.145,211.145 170.5,209.5C 164.57,210.066 158.57,210.233 152.5,210C 149.027,210.319 146.194,211.819 144,214.5C 137.089,228.98 135.755,243.98 140,259.5C 141.801,263.609 143.968,267.442 146.5,271C 155.666,273.452 164.999,275.119 174.5,276C 175.416,276.278 176.082,276.778 176.5,277.5C 160.18,289.104 142.514,291.604 123.5,285C 97.2962,271.087 87.4629,249.587 94,220.5C 103.176,198.34 119.676,186.673 143.5,185.5C 143.5,184.5 143.5,183.5 143.5,182.5C 110.959,185.424 92.9589,203.091 89.5,235.5C 90.5087,263.676 104.509,281.842 131.5,290C 150.404,293.608 167.07,289.108 181.5,276.5C 182.239,276.369 182.906,276.536 183.5,277C 182.549,277.718 182.383,278.551 183,279.5C 184.347,277.534 185.847,277.201 187.5,278.5C 170.081,295.428 149.415,300.928 125.5,295C 90.3134,279.458 77.4801,252.958 87,215.5C 96.0106,194.148 111.844,181.314 134.5,177C 160.261,174.053 180.261,183.22 194.5,204.5 Z"/></g>
<g><path style="opacity:1" fill="#11d0dc" d="M 148.5,187.5 C 152.229,188.013 155.896,188.846 159.5,190C 161.904,190.508 162.571,191.675 161.5,193.5C 157.298,191.866 152.965,190.699 148.5,190C 147.402,189.23 147.402,188.397 148.5,187.5 Z"/></g>
<g><path style="opacity:1" fill="#1c1057" d="M 158.5,197.5 C 157.5,198.167 156.5,198.833 155.5,199.5C 156.606,202.077 158.606,203.744 161.5,204.5C 157.419,206.071 153.085,207.238 148.5,208C 142.089,211.306 137.922,216.472 136,223.5C 132.667,235.5 132.667,247.5 136,259.5C 140.558,273.011 150.058,278.844 164.5,277C 165.056,277.383 165.389,277.883 165.5,278.5C 161.429,280.185 157.429,281.852 153.5,283.5C 150.583,282.583 147.583,281.916 144.5,281.5C 144.672,280.508 144.338,279.842 143.5,279.5C 114.689,275.506 100.856,258.839 102,229.5C 110.938,201.283 129.771,190.616 158.5,197.5 Z"/></g>
<g><path style="opacity:1" fill="#0deaed" d="M 182.5,206.5 C 182.631,207.239 182.464,207.906 182,208.5C 178.604,204.935 175.104,201.602 171.5,198.5C 172.251,197.427 173.251,197.26 174.5,198C 177.371,200.703 180.038,203.536 182.5,206.5 Z"/></g>
<g><path style="opacity:1" fill="#25155b" d="M 195.5,198.5 C 202.965,199.906 210.465,201.24 218,202.5C 226.436,200.766 234.936,199.433 243.5,198.5C 252.858,199.705 262.191,201.039 271.5,202.5C 276.161,202.084 280.827,201.75 285.5,201.5C 296.454,202.84 307.454,203.673 318.5,204C 332.546,207.062 339.712,215.895 340,230.5C 340.995,241.607 340.329,252.607 338,263.5C 336.833,265.833 335.667,268.167 334.5,270.5C 335.602,271.176 336.602,271.842 337.5,272.5C 335.335,272.116 333.668,272.783 332.5,274.5C 305.842,275.5 279.175,275.833 252.5,275.5C 258.422,273.366 264.589,271.7 271,270.5C 274.667,271.167 278.333,271.833 282,272.5C 286.277,271.889 290.444,270.889 294.5,269.5C 300.838,270.835 307.171,272.169 313.5,273.5C 321.035,273.724 326.201,270.39 329,263.5C 334.056,247.286 333.39,231.286 327,215.5C 325.786,213.951 324.286,212.785 322.5,212C 317.036,211.148 311.702,211.648 306.5,213.5C 294.991,210.333 283.324,209.666 271.5,211.5C 262.423,209.643 253.256,208.31 244,207.5C 241.167,207.667 238.333,207.833 235.5,208C 229.517,209.606 223.517,211.106 217.5,212.5C 212.824,211.496 208.157,210.496 203.5,209.5C 202.833,209.5 202.167,209.5 201.5,209.5C 199.742,205.646 197.742,201.979 195.5,198.5 Z"/></g>
<g><path style="opacity:1" fill="#322b6a" d="M 167.5,198.5 C 168.833,198.5 170.167,198.5 171.5,198.5C 175.104,201.602 178.604,204.935 182,208.5C 182.464,207.906 182.631,207.239 182.5,206.5C 185.381,206.095 188.048,205.095 190.5,203.5C 191.714,205.38 193.048,205.713 194.5,204.5C 196.926,207.013 198.592,210.013 199.5,213.5C 198.791,214.404 197.791,214.737 196.5,214.5C 196.719,213.325 196.386,212.325 195.5,211.5C 191.078,213.359 186.412,214.026 181.5,213.5C 177.511,207.845 172.844,202.845 167.5,198.5 Z"/></g>
<g><path style="opacity:1" fill="#0ce3e9" d="M 167.5,198.5 C 172.844,202.845 177.511,207.845 181.5,213.5C 181.833,214.167 182.167,214.833 182.5,215.5C 182.158,216.338 181.492,216.672 180.5,216.5C 175.571,207.371 168.238,201.038 158.5,197.5C 129.771,190.616 110.938,201.283 102,229.5C 100.856,258.839 114.689,275.506 143.5,279.5C 141.393,280.468 139.059,280.802 136.5,280.5C 130.808,279.769 125.475,277.936 120.5,275C 101.987,261.461 95.8201,243.628 102,221.5C 116.514,193.493 138.348,185.826 167.5,198.5 Z"/></g>
<g><path style="opacity:1" fill="#08e1e7" d="M 127.5,200.5 C 129.549,200.706 129.883,201.539 128.5,203C 125.705,204.3 123.039,205.8 120.5,207.5C 120.167,207.167 119.833,206.833 119.5,206.5C 121.839,204.004 124.505,202.004 127.5,200.5 Z"/></g>
<g><path style="opacity:1" fill="#0ce9ed" d="M 155.5,199.5 C 159.404,200.119 162.737,201.785 165.5,204.5C 164.192,205.626 162.858,205.626 161.5,204.5C 158.606,203.744 156.606,202.077 155.5,199.5 Z"/></g>
<g><path style="opacity:1" fill="#09eaee" d="M 137.5,197.5 C 151.755,197.773 151.921,198.773 138,200.5C 136.317,199.824 136.15,198.824 137.5,197.5 Z"/></g>
<g><path style="opacity:1" fill="#39edf0" d="M 170.5,209.5 C 174.145,211.145 176.812,213.812 178.5,217.5C 178.158,218.338 177.492,218.672 176.5,218.5C 175.833,217.833 175.167,217.167 174.5,216.5C 174.068,215.29 173.401,214.29 172.5,213.5C 171.4,212.395 170.733,211.062 170.5,209.5 Z"/></g>
<g><path style="opacity:1" fill="#0cdce4" d="M 113.5,211.5 C 114.376,211.369 115.043,211.702 115.5,212.5C 113.501,215.659 111.335,218.659 109,221.5C 108.5,221.167 108,220.833 107.5,220.5C 109.262,217.299 111.262,214.299 113.5,211.5 Z"/></g>
<g><path style="opacity:1" fill="#312364" d="M 170.5,209.5 C 170.733,211.062 171.4,212.395 172.5,213.5C 171.628,216.572 169.795,218.905 167,220.5C 163.609,219.114 160.775,216.948 158.5,214C 151.756,212.286 147.59,214.786 146,221.5C 145.333,234.833 145.333,248.167 146,261.5C 148.336,268.176 152.836,270.009 159.5,267C 161.504,264.131 163.837,261.631 166.5,259.5C 170.062,260.406 172.728,262.406 174.5,265.5C 173.15,266.65 173.316,267.317 175,267.5C 176.301,267.361 177.134,266.695 177.5,265.5C 178.5,265.5 179.5,265.5 180.5,265.5C 179.585,267.754 178.252,269.754 176.5,271.5C 176.833,271.833 177.167,272.167 177.5,272.5C 178.852,271.476 180.185,270.476 181.5,269.5C 184.998,268.955 187.998,269.788 190.5,272C 186.575,272.234 183.575,273.068 181.5,274.5C 179.589,275.075 177.922,276.075 176.5,277.5C 176.082,276.778 175.416,276.278 174.5,276C 164.999,275.119 155.666,273.452 146.5,271C 143.968,267.442 141.801,263.609 140,259.5C 135.755,243.98 137.089,228.98 144,214.5C 146.194,211.819 149.027,210.319 152.5,210C 158.57,210.233 164.57,210.066 170.5,209.5 Z"/></g>
<g><path style="opacity:1" fill="#6b6995" d="M 199.5,213.5 C 200.404,214.209 200.737,215.209 200.5,216.5C 194.409,216.789 188.409,216.455 182.5,215.5C 182.167,214.833 181.833,214.167 181.5,213.5C 186.412,214.026 191.078,213.359 195.5,211.5C 196.386,212.325 196.719,213.325 196.5,214.5C 197.791,214.737 198.791,214.404 199.5,213.5 Z"/></g>
<g><path style="opacity:1" fill="#f5f6f8" d="M 182.5,215.5 C 188.409,216.455 194.409,216.789 200.5,216.5C 201.833,216.5 203.167,216.5 204.5,216.5C 206.144,216.286 207.644,216.62 209,217.5C 209.667,220.167 209.667,222.833 209,225.5C 208.617,226.056 208.117,226.389 207.5,226.5C 206.039,225.314 204.705,225.314 203.5,226.5C 201.876,226.36 200.71,227.027 200,228.5C 197.894,226.709 195.394,226.042 192.5,226.5C 191.833,226.5 191.167,226.5 190.5,226.5C 189.5,226.5 188.5,226.5 187.5,226.5C 186.833,226.5 186.167,226.5 185.5,226.5C 184.209,226.263 183.209,226.596 182.5,227.5C 181.883,227.611 181.383,227.944 181,228.5C 180.505,230.473 180.338,232.473 180.5,234.5C 180.334,240.842 180.5,247.175 181,253.5C 181.383,254.056 181.883,254.389 182.5,254.5C 182.842,255.338 183.508,255.672 184.5,255.5C 189.975,256.489 195.642,256.822 201.5,256.5C 203.199,256.473 204.533,255.806 205.5,254.5C 205.409,256.698 206.075,257.031 207.5,255.5C 207.938,256.506 208.604,256.506 209.5,255.5C 209.665,258.85 209.498,262.183 209,265.5C 207.644,266.38 206.144,266.714 204.5,266.5C 203.833,266.5 203.167,266.5 202.5,266.5C 201.833,266.5 201.167,266.5 200.5,266.5C 199.167,266.5 197.833,266.5 196.5,266.5C 192.332,266.833 187.999,266.833 183.5,266.5C 182.791,265.596 181.791,265.263 180.5,265.5C 179.5,265.5 178.5,265.5 177.5,265.5C 177.5,264.833 177.167,264.5 176.5,264.5C 176.262,262.596 175.262,261.262 173.5,260.5C 173.291,259.078 172.791,257.745 172,256.5C 171.333,246.167 171.333,235.833 172,225.5C 173.012,222.798 174.512,220.465 176.5,218.5C 177.492,218.672 178.158,218.338 178.5,217.5C 179.492,217.672 180.158,217.338 180.5,216.5C 181.492,216.672 182.158,216.338 182.5,215.5 Z"/></g>
<g><path style="opacity:1" fill="#0cdde5" d="M 176.5,277.5 C 177.922,276.075 179.589,275.075 181.5,274.5C 181.5,275.167 181.5,275.833 181.5,276.5C 167.07,289.108 150.404,293.608 131.5,290C 104.509,281.842 90.5087,263.676 89.5,235.5C 92.9589,203.091 110.959,185.424 143.5,182.5C 143.5,183.5 143.5,184.5 143.5,185.5C 119.676,186.673 103.176,198.34 94,220.5C 87.4629,249.587 97.2962,271.087 123.5,285C 142.514,291.604 160.18,289.104 176.5,277.5 Z"/></g>
<g><path style="opacity:1" fill="#d8d4e0" d="M 158.5,217.5 C 159.167,217.5 159.5,217.833 159.5,218.5C 159.5,233.833 159.5,249.167 159.5,264.5C 159.389,265.117 159.056,265.617 158.5,266C 155.303,266.987 152.47,266.487 150,264.5C 149.333,248.833 149.333,233.167 150,217.5C 152.937,216.183 155.77,216.183 158.5,217.5 Z"/></g>
<g><path style="opacity:1" fill="#fefefe" d="M 158.5,217.5 C 158.5,233.167 158.5,248.833 158.5,264.5C 156.167,264.5 153.833,264.5 151.5,264.5C 151.5,248.833 151.5,233.167 151.5,217.5C 153.833,217.5 156.167,217.5 158.5,217.5 Z"/></g>
<g><path style="opacity:1" fill="#07ebee" d="M 104.5,228.5 C 105.5,228.5 106.5,228.5 107.5,228.5C 105.863,243.073 104.863,243.073 104.5,228.5 Z"/></g>
<g><path style="opacity:1" fill="#545688" d="M 192.5,226.5 C 195.394,226.042 197.894,226.709 200,228.5C 200.71,227.027 201.876,226.36 203.5,226.5C 204.762,232.297 204.762,237.963 203.5,243.5C 203.826,239.116 203.492,234.783 202.5,230.5C 201.262,234.311 200.596,234.311 200.5,230.5C 197.721,230.279 195.054,230.612 192.5,231.5C 192.5,229.833 192.5,228.167 192.5,226.5 Z"/></g>
<g><path style="opacity:1" fill="#4ef4f5" d="M 190.5,226.5 C 191.167,226.5 191.833,226.5 192.5,226.5C 192.5,228.167 192.5,229.833 192.5,231.5C 190.744,230.448 190.077,228.781 190.5,226.5 Z"/></g>
<g><path style="opacity:1" fill="#83edf0" d="M 182.5,227.5 C 182.511,229.547 182.844,231.547 183.5,233.5C 183.124,235.803 182.124,236.137 180.5,234.5C 180.338,232.473 180.505,230.473 181,228.5C 181.383,227.944 181.883,227.611 182.5,227.5 Z"/></g>
<g><path style="opacity:1" fill="#392d6c" d="M 187.5,226.5 C 188.5,226.5 189.5,226.5 190.5,226.5C 190.077,228.781 190.744,230.448 192.5,231.5C 195.054,230.612 197.721,230.279 200.5,230.5C 200.596,234.311 201.262,234.311 202.5,230.5C 203.492,234.783 203.826,239.116 203.5,243.5C 203.309,247.262 202.642,250.929 201.5,254.5C 200.069,254.119 199.236,253.119 199,251.5C 195.72,253.891 192.22,254.058 188.5,252C 187.594,250.301 187.261,248.467 187.5,246.5C 188.833,239.833 188.833,233.167 187.5,226.5 Z"/></g>
<g><path style="opacity:1" fill="#493c76" d="M 201.5,209.5 C 202.167,209.5 202.833,209.5 203.5,209.5C 208.753,211.361 213.586,214.027 218,217.5C 221.887,215.807 225.721,213.973 229.5,212C 237.833,211.333 246.167,211.333 254.5,212C 260.459,213.964 265.959,216.797 271,220.5C 274.27,218.121 277.437,215.621 280.5,213C 285.572,212.249 290.572,212.582 295.5,214C 298.195,217.524 301.529,220.358 305.5,222.5C 307.922,219.683 310.256,216.849 312.5,214C 321.685,212.126 326.519,215.96 327,225.5C 327.667,236.833 327.667,248.167 327,259.5C 326.27,264.155 323.77,267.321 319.5,269C 315.5,269.667 311.5,269.667 307.5,269C 303.361,266.361 299.361,263.528 295.5,260.5C 292.727,263.196 290.06,266.029 287.5,269C 284.072,269.701 280.738,269.368 277.5,268C 276.005,265.172 273.839,263.005 271,261.5C 268.178,263.653 265.344,265.819 262.5,268C 259.637,269.399 256.637,270.399 253.5,271C 246.167,271.667 238.833,271.667 231.5,271C 225.817,269.193 220.983,266.026 217,261.5C 214.134,267.683 209.301,271.016 202.5,271.5C 203.441,269.95 204.107,268.284 204.5,266.5C 206.144,266.714 207.644,266.38 209,265.5C 209.498,262.183 209.665,258.85 209.5,255.5C 210.294,250.861 210.961,246.194 211.5,241.5C 211.167,239.833 210.833,238.167 210.5,236.5C 209.391,242.822 208.391,249.156 207.5,255.5C 206.075,257.031 205.409,256.698 205.5,254.5C 207.18,245.257 207.846,235.923 207.5,226.5C 208.117,226.389 208.617,226.056 209,225.5C 209.667,222.833 209.667,220.167 209,217.5C 207.644,216.62 206.144,216.286 204.5,216.5C 203.695,214.085 202.695,211.751 201.5,209.5 Z"/></g>
<g><path style="opacity:1" fill="#f9f8fa" d="M 303.5,237.5 C 306.729,242.279 309.729,247.279 312.5,252.5C 313.499,240.852 313.832,229.186 313.5,217.5C 316.287,216.523 319.287,216.19 322.5,216.5C 322.5,217.5 322.5,218.5 322.5,219.5C 322.667,233.837 322.5,248.171 322,262.5C 317.111,267.39 311.945,267.724 306.5,263.5C 305.048,258.601 302.548,254.267 299,250.5C 296.27,243.372 292.77,236.705 288.5,230.5C 288.631,229.624 288.298,228.957 287.5,228.5C 286.501,240.482 286.168,252.482 286.5,264.5C 284.167,264.5 281.833,264.5 279.5,264.5C 279.5,249.167 279.5,233.833 279.5,218.5C 279.611,217.883 279.944,217.383 280.5,217C 284.167,216.333 287.833,216.333 291.5,217C 296.406,223.314 300.406,230.147 303.5,237.5 Z"/></g>
<g><path style="opacity:1" fill="#b2abc4" d="M 313.5,217.5 C 313.832,229.186 313.499,240.852 312.5,252.5C 309.729,247.279 306.729,242.279 303.5,237.5C 306.341,238.842 308.341,241.009 309.5,244C 310.449,244.617 311.282,244.451 312,243.5C 312.5,235.507 312.666,227.507 312.5,219.5C 312.328,218.508 312.662,217.842 313.5,217.5 Z"/></g>
<g><path style="opacity:1" fill="#6c6291" d="M 235.5,212.5 C 242.896,212.2 250.229,212.7 257.5,214C 261.472,216.582 264.972,219.749 268,223.5C 269.531,233.448 269.865,243.448 269,253.5C 267.08,256.339 265.413,259.339 264,262.5C 261.684,265.152 258.851,266.985 255.5,268C 247.833,268.667 240.167,268.667 232.5,268C 229.715,267.342 227.049,266.509 224.5,265.5C 222.136,261.58 220.636,257.246 220,252.5C 219.333,244.167 219.333,235.833 220,227.5C 221.28,218.308 226.446,213.308 235.5,212.5 Z"/></g>
<g><path style="opacity:1" fill="#f9f8fa" d="M 263.5,222.5 C 265.373,233.033 266.04,243.7 265.5,254.5C 264.624,259.926 261.624,263.593 256.5,265.5C 248.493,265.666 240.493,265.5 232.5,265C 230.372,264.345 228.372,263.511 226.5,262.5C 223.851,260.588 222.518,257.921 222.5,254.5C 221.991,243.695 222.658,233.029 224.5,222.5C 225.961,219.745 228.295,217.912 231.5,217C 239.5,216.333 247.5,216.333 255.5,217C 259.07,217.611 261.737,219.444 263.5,222.5 Z"/></g>
<g><path style="opacity:1" fill="#43e6eb" d="M 185.5,226.5 C 186.167,226.5 186.833,226.5 187.5,226.5C 188.833,233.167 188.833,239.833 187.5,246.5C 186.331,249.341 185.331,252.341 184.5,255.5C 183.508,255.672 182.842,255.338 182.5,254.5C 185.224,245.408 186.224,236.075 185.5,226.5 Z"/></g>
<g><path style="opacity:1" fill="#2ef5f5" d="M 207.5,226.5 C 207.846,235.923 207.18,245.257 205.5,254.5C 204.533,255.806 203.199,256.473 201.5,256.5C 201.5,255.833 201.5,255.167 201.5,254.5C 202.642,250.929 203.309,247.262 203.5,243.5C 204.762,237.963 204.762,232.297 203.5,226.5C 204.705,225.314 206.039,225.314 207.5,226.5 Z"/></g>
<g><path style="opacity:1" fill="#685d8d" d="M 174.5,216.5 C 175.167,217.167 175.833,217.833 176.5,218.5C 174.512,220.465 173.012,222.798 172,225.5C 171.333,235.833 171.333,246.167 172,256.5C 172.791,257.745 173.291,259.078 173.5,260.5C 171.983,260.489 170.816,259.823 170,258.5C 168.85,255.232 168.016,251.899 167.5,248.5C 166.5,248.5 165.5,248.5 164.5,248.5C 163.381,254.104 161.715,259.438 159.5,264.5C 159.5,249.167 159.5,233.833 159.5,218.5C 160.524,220.512 162.024,222.178 164,223.5C 164.17,225.715 164.837,227.715 166,229.5C 167.682,226.136 169.349,222.802 171,219.5C 172.145,218.364 173.312,217.364 174.5,216.5 Z"/></g>
<g><path style="opacity:1" fill="#7a749d" d="M 185.5,226.5 C 186.224,236.075 185.224,245.408 182.5,254.5C 181.883,254.389 181.383,254.056 181,253.5C 180.5,247.175 180.334,240.842 180.5,234.5C 182.124,236.137 183.124,235.803 183.5,233.5C 182.844,231.547 182.511,229.547 182.5,227.5C 183.209,226.596 184.209,226.263 185.5,226.5 Z"/></g>
<g><path style="opacity:1" fill="#c5bfd2" d="M 224.5,222.5 C 222.658,233.029 221.991,243.695 222.5,254.5C 221.343,245.676 221.176,236.676 222,227.5C 222.374,225.509 223.207,223.842 224.5,222.5 Z"/></g>
<g><path style="opacity:1" fill="#afa9c3" d="M 263.5,222.5 C 264.966,223.347 265.8,224.68 266,226.5C 266.824,236.009 266.658,245.343 265.5,254.5C 266.04,243.7 265.373,233.033 263.5,222.5 Z"/></g>
<g><path style="opacity:1" fill="#8c84a9" d="M 234.5,226.5 C 241.876,226.274 249.209,226.608 256.5,227.5C 256.666,236.173 256.5,244.84 256,253.5C 255.5,254.667 254.667,255.5 253.5,256C 246.833,256.667 240.167,256.667 233.5,256C 232.54,254.581 231.707,253.081 231,251.5C 230.333,244.167 230.333,236.833 231,229.5C 231.985,228.186 233.152,227.186 234.5,226.5 Z"/></g>
<g><path style="opacity:1" fill="#29e1e7" d="M 209.5,255.5 C 208.604,256.506 207.938,256.506 207.5,255.5C 208.391,249.156 209.391,242.822 210.5,236.5C 210.833,238.167 211.167,239.833 211.5,241.5C 210.961,246.194 210.294,250.861 209.5,255.5 Z"/></g>
<g><path style="opacity:1" fill="#d8d4e0" d="M 279.5,218.5 C 279.5,233.833 279.5,249.167 279.5,264.5C 281.833,264.5 284.167,264.5 286.5,264.5C 286.168,252.482 286.501,240.482 287.5,228.5C 288.298,228.957 288.631,229.624 288.5,230.5C 287.505,241.321 287.172,252.321 287.5,263.5C 287.443,264.609 287.11,265.609 286.5,266.5C 283.753,266.813 281.086,266.48 278.5,265.5C 277.754,264.264 277.421,262.93 277.5,261.5C 277.333,247.829 277.5,234.163 278,220.5C 278.278,219.584 278.778,218.918 279.5,218.5 Z"/></g>
<g><path style="opacity:1" fill="#0be0e6" d="M 106.5,246.5 C 108.64,248.7 110.14,251.367 111,254.5C 111.749,255.635 111.583,256.635 110.5,257.5C 107.632,254.153 106.298,250.486 106.5,246.5 Z"/></g>
<g><path style="opacity:1" fill="#574c81" d="M 172.5,213.5 C 173.401,214.29 174.068,215.29 174.5,216.5C 173.312,217.364 172.145,218.364 171,219.5C 169.349,222.802 167.682,226.136 166,229.5C 164.837,227.715 164.17,225.715 164,223.5C 162.024,222.178 160.524,220.512 159.5,218.5C 159.5,217.833 159.167,217.5 158.5,217.5C 155.77,216.183 152.937,216.183 150,217.5C 149.333,233.167 149.333,248.833 150,264.5C 152.47,266.487 155.303,266.987 158.5,266C 159.056,265.617 159.389,265.117 159.5,264.5C 161.715,259.438 163.381,254.104 164.5,248.5C 165.5,248.5 166.5,248.5 167.5,248.5C 168.016,251.899 168.85,255.232 170,258.5C 170.816,259.823 171.983,260.489 173.5,260.5C 175.262,261.262 176.262,262.596 176.5,264.5C 175.833,264.833 175.167,265.167 174.5,265.5C 172.728,262.406 170.062,260.406 166.5,259.5C 163.837,261.631 161.504,264.131 159.5,267C 152.836,270.009 148.336,268.176 146,261.5C 145.333,248.167 145.333,234.833 146,221.5C 147.59,214.786 151.756,212.286 158.5,214C 160.775,216.948 163.609,219.114 167,220.5C 169.795,218.905 171.628,216.572 172.5,213.5 Z"/></g>
<g><path style="opacity:1" fill="#6f6593" d="M 312.5,219.5 C 312.666,227.507 312.5,235.507 312,243.5C 311.282,244.451 310.449,244.617 309.5,244C 308.341,241.009 306.341,238.842 303.5,237.5C 300.406,230.147 296.406,223.314 291.5,217C 287.833,216.333 284.167,216.333 280.5,217C 279.944,217.383 279.611,217.883 279.5,218.5C 278.778,218.918 278.278,219.584 278,220.5C 277.5,234.163 277.333,247.829 277.5,261.5C 276.883,261.389 276.383,261.056 276,260.5C 274.508,249.206 274.174,237.872 275,226.5C 275.543,222.255 277.043,218.421 279.5,215C 284.618,214.112 289.618,214.445 294.5,216C 298.602,222.279 302.936,228.446 307.5,234.5C 308.086,234.291 308.586,233.957 309,233.5C 309.683,228.56 310.85,223.893 312.5,219.5 Z"/></g>
<g><path style="opacity:1" fill="#63588a" d="M 322.5,219.5 C 323.302,220.952 323.802,222.618 324,224.5C 324.667,236.833 324.667,249.167 324,261.5C 322.577,266.546 319.244,268.879 314,268.5C 311.409,268.435 308.909,267.935 306.5,267C 302.45,262.405 298.283,257.905 294,253.5C 291.608,256.702 290.275,260.369 290,264.5C 289.184,265.823 288.017,266.489 286.5,266.5C 287.11,265.609 287.443,264.609 287.5,263.5C 288.222,263.082 288.722,262.416 289,261.5C 289.333,257.5 289.667,253.5 290,249.5C 290.368,248.09 291.201,247.09 292.5,246.5C 295.833,251.167 299.167,255.833 302.5,260.5C 303.852,261.524 305.185,262.524 306.5,263.5C 311.945,267.724 317.111,267.39 322,262.5C 322.5,248.171 322.667,233.837 322.5,219.5 Z"/></g>
<g><path style="opacity:1" fill="#63588a" d="M 236.5,227.5 C 241.511,227.334 246.511,227.501 251.5,228C 252.667,229.167 253.833,230.333 255,231.5C 255.691,239.195 255.525,246.861 254.5,254.5C 247.616,255.694 240.782,255.694 234,254.5C 231.319,247.084 230.819,239.417 232.5,231.5C 234.188,230.479 235.521,229.145 236.5,227.5 Z"/></g>
<g><path style="opacity:1" fill="#483b75" d="M 237.5,230.5 C 241.514,230.334 245.514,230.501 249.5,231C 250.025,231.692 250.692,232.192 251.5,232.5C 252.833,238.167 252.833,243.833 251.5,249.5C 246.84,251.735 242.007,252.068 237,250.5C 234.893,243.741 235.06,237.074 237.5,230.5 Z"/></g>
<g><path style="opacity:1" fill="#6e6995" d="M 187.5,246.5 C 187.261,248.467 187.594,250.301 188.5,252C 192.22,254.058 195.72,253.891 199,251.5C 199.236,253.119 200.069,254.119 201.5,254.5C 201.5,255.167 201.5,255.833 201.5,256.5C 195.642,256.822 189.975,256.489 184.5,255.5C 185.331,252.341 186.331,249.341 187.5,246.5 Z"/></g>
<g><path style="opacity:1" fill="#847ba2" d="M 288.5,230.5 C 292.77,236.705 296.27,243.372 299,250.5C 302.548,254.267 305.048,258.601 306.5,263.5C 305.185,262.524 303.852,261.524 302.5,260.5C 299.167,255.833 295.833,251.167 292.5,246.5C 291.201,247.09 290.368,248.09 290,249.5C 289.667,253.5 289.333,257.5 289,261.5C 288.722,262.416 288.222,263.082 287.5,263.5C 287.172,252.321 287.505,241.321 288.5,230.5 Z"/></g>
<g><path style="opacity:1" fill="#45f1f3" d="M 176.5,264.5 C 177.167,264.5 177.5,264.833 177.5,265.5C 177.134,266.695 176.301,267.361 175,267.5C 173.316,267.317 173.15,266.65 174.5,265.5C 175.167,265.167 175.833,264.833 176.5,264.5 Z"/></g>
<g><path style="opacity:1" fill="#47edf0" d="M 180.5,265.5 C 181.791,265.263 182.791,265.596 183.5,266.5C 182.094,266.973 181.427,267.973 181.5,269.5C 180.185,270.476 178.852,271.476 177.5,272.5C 177.167,272.167 176.833,271.833 176.5,271.5C 178.252,269.754 179.585,267.754 180.5,265.5 Z"/></g>
<g><path style="opacity:1" fill="#322465" d="M 252.5,275.5 C 247.167,275.5 241.833,275.5 236.5,275.5C 230.438,273.265 224.104,271.598 217.5,270.5C 211.83,271.835 206.163,273.168 200.5,274.5C 201.167,273.5 201.833,272.5 202.5,271.5C 209.301,271.016 214.134,267.683 217,261.5C 220.983,266.026 225.817,269.193 231.5,271C 238.833,271.667 246.167,271.667 253.5,271C 256.637,270.399 259.637,269.399 262.5,268C 265.344,265.819 268.178,263.653 271,261.5C 273.839,263.005 276.005,265.172 277.5,268C 280.738,269.368 284.072,269.701 287.5,269C 290.06,266.029 292.727,263.196 295.5,260.5C 299.361,263.528 303.361,266.361 307.5,269C 311.5,269.667 315.5,269.667 319.5,269C 323.77,267.321 326.27,264.155 327,259.5C 327.667,248.167 327.667,236.833 327,225.5C 326.519,215.96 321.685,212.126 312.5,214C 310.256,216.849 307.922,219.683 305.5,222.5C 301.529,220.358 298.195,217.524 295.5,214C 290.572,212.582 285.572,212.249 280.5,213C 277.437,215.621 274.27,218.121 271,220.5C 265.959,216.797 260.459,213.964 254.5,212C 246.167,211.333 237.833,211.333 229.5,212C 225.721,213.973 221.887,215.807 218,217.5C 213.586,214.027 208.753,211.361 203.5,209.5C 208.157,210.496 212.824,211.496 217.5,212.5C 223.517,211.106 229.517,209.606 235.5,208C 238.333,207.833 241.167,207.667 244,207.5C 253.256,208.31 262.423,209.643 271.5,211.5C 283.324,209.666 294.991,210.333 306.5,213.5C 311.702,211.648 317.036,211.148 322.5,212C 324.286,212.785 325.786,213.951 327,215.5C 333.39,231.286 334.056,247.286 329,263.5C 326.201,270.39 321.035,273.724 313.5,273.5C 307.171,272.169 300.838,270.835 294.5,269.5C 290.444,270.889 286.277,271.889 282,272.5C 278.333,271.833 274.667,271.167 271,270.5C 264.589,271.7 258.422,273.366 252.5,275.5 Z"/></g>
<g><path style="opacity:1" fill="#c9c3d5" d="M 226.5,262.5 C 228.372,263.511 230.372,264.345 232.5,265C 240.493,265.5 248.493,265.666 256.5,265.5C 248.01,266.657 239.343,266.824 230.5,266C 228.676,265.34 227.343,264.173 226.5,262.5 Z"/></g>
<g><path style="opacity:1" fill="#c1bdd1" d="M 337.5,272.5 C 339.377,273.659 339.877,275.326 339,277.5C 336.976,279.884 334.809,280.051 332.5,278C 296.167,277.333 259.833,277.333 223.5,278C 209.268,292.729 195.268,307.562 181.5,322.5C 181.5,322.167 181.5,321.833 181.5,321.5C 194.776,306.221 208.442,291.221 222.5,276.5C 227.12,275.507 231.786,275.173 236.5,275.5C 241.833,275.5 247.167,275.5 252.5,275.5C 279.175,275.833 305.842,275.5 332.5,274.5C 333.668,272.783 335.335,272.116 337.5,272.5 Z"/></g>
<g><path style="opacity:1" fill="#0cdfe6" d="M 96.5,189.5 C 74.1448,215.963 71.6448,244.296 89,274.5C 109.873,301.014 136.373,308.847 168.5,298C 183.621,291.371 194.955,280.871 202.5,266.5C 203.167,266.5 203.833,266.5 204.5,266.5C 204.107,268.284 203.441,269.95 202.5,271.5C 201.833,272.5 201.167,273.5 200.5,274.5C 177.524,304.209 148.524,312.042 113.5,298C 84.3831,281.261 72.2164,256.095 77,222.5C 79.9838,209.166 86.4838,198.166 96.5,189.5 Z"/></g>
<g><path style="opacity:1" fill="#1f2363" d="M 96.5,189.5 C 97.1667,190.167 97.8333,190.833 98.5,191.5C 91.1699,199.684 85.6699,209.018 82,219.5C 75.1734,254.678 87.6734,280.178 119.5,296C 154.28,307.022 181.28,297.188 200.5,266.5C 201.167,266.5 201.833,266.5 202.5,266.5C 194.955,280.871 183.621,291.371 168.5,298C 136.373,308.847 109.873,301.014 89,274.5C 71.6448,244.296 74.1448,215.963 96.5,189.5 Z"/></g>
<g><path style="opacity:1" fill="#12d3de" d="M 165.5,278.5 C 166.376,278.369 167.043,278.702 167.5,279.5C 163.135,282.744 158.468,284.077 153.5,283.5C 157.429,281.852 161.429,280.185 165.5,278.5 Z"/></g>
<g><path style="opacity:1" fill="#157da2" d="M 143.5,279.5 C 144.338,279.842 144.672,280.508 144.5,281.5C 141.615,281.806 138.948,281.473 136.5,280.5C 139.059,280.802 141.393,280.468 143.5,279.5 Z"/></g>
<g><path style="opacity:1" fill="#404179" d="M 183.5,266.5 C 187.999,266.833 192.332,266.833 196.5,266.5C 194.238,271.09 191.238,275.09 187.5,278.5C 185.847,277.201 184.347,277.534 183,279.5C 182.383,278.551 182.549,277.718 183.5,277C 182.906,276.536 182.239,276.369 181.5,276.5C 181.5,275.833 181.5,275.167 181.5,274.5C 183.575,273.068 186.575,272.234 190.5,272C 187.998,269.788 184.998,268.955 181.5,269.5C 181.427,267.973 182.094,266.973 183.5,266.5 Z"/></g>
<g><path style="opacity:1" fill="#06e7ec" d="M 107.5,267.5 C 111.172,270.84 114.839,274.173 118.5,277.5C 118.167,277.833 117.833,278.167 117.5,278.5C 113.391,275.894 109.724,272.727 106.5,269C 107.056,268.617 107.389,268.117 107.5,267.5 Z"/></g>
<g><path style="opacity:1" fill="#10d2de" d="M 128.5,281.5 C 147.043,284.453 147.043,285.453 128.5,284.5C 128.5,283.5 128.5,282.5 128.5,281.5 Z"/></g>
<g><path style="opacity:1" fill="#01f5f5" d="M 220.5,291.5 C 225.167,291.5 229.833,291.5 234.5,291.5C 234.5,292.5 234.5,293.5 234.5,294.5C 229.833,294.5 225.167,294.5 220.5,294.5C 220.5,293.5 220.5,292.5 220.5,291.5 Z"/></g>
<g><path style="opacity:1" fill="#07e8ec" d="M 246.5,291.5 C 247.552,291.351 248.552,291.517 249.5,292C 250.88,293.925 252.38,295.759 254,297.5C 255.446,293.655 257.946,291.989 261.5,292.5C 259.455,294.759 257.789,297.259 256.5,300C 257.951,302.953 259.618,305.787 261.5,308.5C 260.167,309.833 258.833,309.833 257.5,308.5C 256.167,306.833 254.833,305.167 253.5,303.5C 252.167,305.167 250.833,306.833 249.5,308.5C 248.167,309.833 246.833,309.833 245.5,308.5C 247.623,305.754 249.623,302.921 251.5,300C 249.18,297.522 247.514,294.689 246.5,291.5 Z"/></g>
<g><path style="opacity:1" fill="#0bdee5" d="M 272.5,291.5 C 276.846,291.334 281.179,291.501 285.5,292C 288.167,295.333 288.167,298.667 285.5,302C 282.518,302.498 279.518,302.665 276.5,302.5C 276.5,304.833 276.5,307.167 276.5,309.5C 275.167,309.5 273.833,309.5 272.5,309.5C 272.211,305.894 272.544,302.394 273.5,299C 277.152,298.501 280.818,298.335 284.5,298.5C 284.67,297.178 284.337,296.011 283.5,295C 279.848,294.501 276.182,294.335 272.5,294.5C 272.5,293.5 272.5,292.5 272.5,291.5 Z"/></g>
<g><path style="opacity:1" fill="#06ebee" d="M 306.5,302.5 C 305.081,301.549 303.415,301.216 301.5,301.5C 301.5,304.167 301.5,306.833 301.5,309.5C 300.5,309.5 299.5,309.5 298.5,309.5C 298.5,305.833 298.5,302.167 298.5,298.5C 302.5,298.5 306.5,298.5 310.5,298.5C 310.67,297.178 310.337,296.011 309.5,295C 305.848,294.501 302.182,294.335 298.5,294.5C 298.5,293.5 298.5,292.5 298.5,291.5C 302.846,291.334 307.179,291.501 311.5,292C 314.296,295.741 313.963,299.241 310.5,302.5C 312.02,304.662 313.02,306.995 313.5,309.5C 312.448,309.649 311.448,309.483 310.5,309C 309.281,306.722 307.948,304.555 306.5,302.5 Z"/></g>
<g><path style="opacity:1" fill="#00f9f8" d="M 325.5,291.5 C 329.833,291.5 334.167,291.5 338.5,291.5C 338.5,292.5 338.5,293.5 338.5,294.5C 334.167,294.5 329.833,294.5 325.5,294.5C 325.5,293.5 325.5,292.5 325.5,291.5 Z"/></g>
<g><path style="opacity:1" fill="#08e8ec" d="M 351.5,291.5 C 355.5,291.5 359.5,291.5 363.5,291.5C 363.5,292.5 363.5,293.5 363.5,294.5C 360.167,294.5 356.833,294.5 353.5,294.5C 353.5,295.833 353.5,297.167 353.5,298.5C 361.924,296.101 365.424,299.101 364,307.5C 363.5,308 363,308.5 362.5,309C 358.514,309.499 354.514,309.666 350.5,309.5C 350.5,308.5 350.5,307.5 350.5,306.5C 353.833,306.5 357.167,306.5 360.5,306.5C 360.5,305.167 360.5,303.833 360.5,302.5C 351.254,303.922 348.254,300.255 351.5,291.5 Z"/></g>
<g><path style="opacity:1" fill="#08e8ec" d="M 376.5,291.5 C 380.5,291.5 384.5,291.5 388.5,291.5C 388.5,292.5 388.5,293.5 388.5,294.5C 385.167,294.5 381.833,294.5 378.5,294.5C 378.5,295.833 378.5,297.167 378.5,298.5C 386.924,296.101 390.424,299.101 389,307.5C 388.5,308 388,308.5 387.5,309C 383.514,309.499 379.514,309.666 375.5,309.5C 375.5,308.5 375.5,307.5 375.5,306.5C 378.833,306.5 382.167,306.5 385.5,306.5C 385.5,305.167 385.5,303.833 385.5,302.5C 376.254,303.922 373.254,300.255 376.5,291.5 Z"/></g>
<g><path style="opacity:1" fill="#0bdee5" d="M 221.5,298.5 C 225.833,298.5 230.167,298.5 234.5,298.5C 234.5,299.833 234.5,301.167 234.5,302.5C 231.167,302.5 227.833,302.5 224.5,302.5C 224.5,303.5 224.5,304.5 224.5,305.5C 227.833,305.5 231.167,305.5 234.5,305.5C 234.5,306.833 234.5,308.167 234.5,309.5C 230.818,309.665 227.152,309.499 223.5,309C 220.38,306.006 219.714,302.506 221.5,298.5 Z"/></g>
<g><path style="opacity:1" fill="#08e6eb" d="M 326.5,298.5 C 330.5,298.5 334.5,298.5 338.5,298.5C 338.5,299.833 338.5,301.167 338.5,302.5C 335.102,302.18 331.768,302.513 328.5,303.5C 328.709,304.086 329.043,304.586 329.5,305C 332.482,305.498 335.482,305.665 338.5,305.5C 338.5,306.833 338.5,308.167 338.5,309.5C 327.852,312.512 323.852,308.845 326.5,298.5 Z"/></g>
<g><path style="opacity:1" fill="#1084a7" d="M 306.5,302.5 C 305.167,302.5 303.833,302.5 302.5,302.5C 302.802,305.059 302.468,307.393 301.5,309.5C 301.5,306.833 301.5,304.167 301.5,301.5C 303.415,301.216 305.081,301.549 306.5,302.5 Z"/></g>
<g><path style="opacity:1" fill="#f8f7f9" d="M 181.5,321.5 C 181.5,321.833 181.5,322.167 181.5,322.5C 151.498,322.333 121.498,322.5 91.5,323C 88.3399,326.503 85.6732,326.336 83.5,322.5C 84.9238,318.229 87.2571,317.562 90.5,320.5C 120.826,321.5 151.159,321.833 181.5,321.5 Z"/></g>
</svg>
